PathFileType	4	(X/Y/Z)	./resultDataOpenSim/trcMotMarkerGrf/sub10/qtm-04-07.trc
DataRate	CameraRate	NumFrames	NumMarkers	Units	OrigDataRate	OrigDataStartFrame	OrigNumFrames
250.000000	250.000000	9	24	m	250.000000	422	562
Frame#	Time	L.Toe.Tip			R.Toe.Tip			L.Ankle.Lat			R.Ankle.Lat			L.Ankle.Med			R.Ankle.Med			L.Heel			R.Heel			L.Knee.Lat			R.Knee.Lat			L.Knee.Med			R.Knee.Med			L.Thigh.Upper			R.Thigh.Upper			L.ASIS			R.ASIS			V.Sacral			L.Acromium			R.Acromium			C7			L.Elbow			R.Elbow			L.Wrist.Lat			R.Wrist.Lat
		X1	Y1	Z1	X2	Y2	Z2	X3	Y3	Z3	X4	Y4	Z4	X5	Y5	Z5	X6	Y6	Z6	X7	Y7	Z7	X8	Y8	Z8	X9	Y9	Z9	X10	Y10	Z10	X11	Y11	Z11	X12	Y12	Z12	X13	Y13	Z13	X14	Y14	Z14	X15	Y15	Z15	X16	Y16	Z16	X17	Y17	Z17	X18	Y18	Z18	X19	Y19	Z19	X20	Y20	Z20	X21	Y21	Z21	X22	Y22	Z22	X23	Y23	Z23	X24	Y24	Z24

422	1.684	0.93957288	0.06415991	-0.15632117	0.80025362	0.03795851	0.058812562	0.82513838	0.13789866	-0.16720952	0.65677521	0.055213877	0.093134527	0.84774111	0.15050396	-0.085179392	0.67960012	0.081697523	0.010041198	0.75929381	0.12642957	-0.11583807	0.60735808	0.031992852	0.047100211	0.97255562	0.49630271	-0.17416162	0.75640234	0.4467719	0.13111035	0.99982753	0.46430158	-0.0579659	0.76844755	0.45011965	0.0028923702	0.8313175	0.85208498	-0.19400416	0.77141084	0.86219288	0.18652106	0.8685085	0.96062367	-0.11750369	0.8523848	0.95516614	0.12392265	0.66371472	0.96415641	-0.014524308	0.81022401	1.4374592	-0.1371654	0.78214802	1.4171665	0.18360093	0.71772091	1.4510809	0.013224304	0.65819869	1.1540789	-0.25737632	0.76105507	1.0649428	0.27540122	0.70726695	0.91973346	-0.3057277	0.98399132	0.98487491	0.36173176
423	1.688	0.95696271	0.063409748	-0.15567646	0.80031737	0.038013474	0.058849072	0.84062915	0.13395828	-0.16719596	0.65681271	0.055256294	0.093128945	0.86285123	0.14728192	-0.085086116	0.67963984	0.081724874	0.0099876112	0.77507837	0.12078858	-0.11604191	0.6072871	0.032093941	0.04694157	0.98003974	0.4961768	-0.17347314	0.75774732	0.4465064	0.13129359	1.0070502	0.46457305	-0.057196222	0.76980144	0.44988322	0.0028510618	0.83727557	0.85174258	-0.19370863	0.77486279	0.8616724	0.1866924	0.87407506	0.96024911	-0.11710775	0.85644074	0.95467251	0.1244174	0.6685312	0.96338023	-0.015264707	0.8147811	1.4367819	-0.13724583	0.78666486	1.4166958	0.18360086	0.72221116	1.4504946	0.013149934	0.66033996	1.1546995	-0.25692393	0.76857611	1.064594	0.2765287	0.7072758	0.92025329	-0.30683856	0.9932806	0.9869825	0.36095295
424	1.692	0.97435764	0.062722827	-0.15498481	0.80039396	0.038057144	0.05886559	0.85624156	0.13007048	-0.16716667	0.65684537	0.055307572	0.093127846	0.87827416	0.14415816	-0.085045822	0.67965661	0.081770203	0.0099239363	0.79100497	0.11513534	-0.11631652	0.60712571	0.032213225	0.046638526	0.98739984	0.49593509	-0.17279828	0.75912859	0.44624239	0.13145961	1.0140327	0.46468382	-0.056441702	0.77129116	0.44966859	0.0028529468	0.84321191	0.85129997	-0.19341612	0.77832321	0.86111392	0.18691598	0.87966173	0.95980354	-0.11673087	0.86049585	0.95410337	0.12490478	0.67361526	0.96254042	-0.015980444	0.81935068	1.436041	-0.13734461	0.79123004	1.4161637	0.18360084	0.72671718	1.449876	0.013075124	0.6625353	1.1552577	-0.25646234	0.77615194	1.0642066	0.27761696	0.70735718	0.92074512	-0.30789929	1.00251	0.9889963	0.36010746
425	1.696	0.99176287	0.062107662	-0.15425039	0.80047557	0.038082266	0.058892224	0.87198186	0.12625893	-0.16711068	0.65686761	0.055367983	0.093122566	0.8942311	0.14110747	-0.085234677	0.67969296	0.081833256	0.0098700365	0.80698606	0.10957101	-0.11663965	0.60692448	0.032369024	0.046296744	0.99455715	0.49554738	-0.17215359	0.76054854	0.44597277	0.13160562	1.020813	0.46462975	-0.055685142	0.77314758	0.44943673	0.0030235474	0.84916124	0.85076613	-0.19314856	0.78176528	0.86057641	0.18709156	0.8852519	0.95927846	-0.11635984	0.8645827	0.95350174	0.12538782	0.67887403	0.96165615	-0.016672211	0.82394188	1.4352453	-0.13745161	0.79583896	1.4155702	0.18359713	0.73123694	1.4492067	0.012989375	0.6647989	1.1557491	-0.25597429	0.78378342	1.0637914	0.27862359	0.7075202	0.92120935	-0.30891738	1.0116699	0.99094492	0.35918277
426	1.7	1.0091774	0.061585886	-0.15347695	0.80060654	0.038104041	0.058968172	0.88785279	0.12252368	-0.16702561	0.65688149	0.05543418	0.093105135	0.91058439	0.13799307	-0.085768074	0.679829	0.081884608	0.0098535618	0.82300926	0.10414976	-0.11696139	0.60677066	0.032546406	0.046063091	1.0015349	0.4950088	-0.17154116	0.76201667	0.44569377	0.13173424	1.0274335	0.46441328	-0.054915165	0.77533141	0.44919135	0.0033287581	0.85512833	0.85014933	-0.19290483	0.78520653	0.86008444	0.18716917	0.89083165	0.95866791	-0.11597942	0.86871282	0.95290431	0.12586533	0.68405123	0.96071794	-0.017391775	0.82856159	1.4344046	-0.13755616	0.80047682	1.4149155	0.18358692	0.73576102	1.4484688	0.012885816	0.66713768	1.1561767	-0.25545194	0.79146128	1.0633532	0.27952734	0.70777628	0.92164183	-0.3099013	1.0207545	0.99283204	0.35817495
427	1.704	1.0266005	0.061189344	-0.15266595	0.80078793	0.038129047	0.059083211	0.90383804	0.11884057	-0.16692288	0.65689837	0.055503363	0.093073171	0.92650056	0.13464981	-0.086425891	0.68007161	0.081901249	0.009867137	0.83913937	0.098871309	-0.11722878	0.60669652	0.032713702	0.04596366	1.0083983	0.49432779	-0.17095434	0.76354053	0.4454085	0.13184392	1.033917	0.46404683	-0.054145383	0.77760745	0.44895116	0.0036382318	0.86109999	0.84944972	-0.19267215	0.78867363	0.85960978	0.18716407	0.89640962	0.95797348	-0.11559039	0.87284376	0.95230222	0.12633807	0.68902626	0.9597137	-0.018164241	0.833207	1.4335218	-0.13766014	0.80513023	1.4141946	0.18356738	0.74028928	1.4476563	0.01277149	0.66953599	1.1565506	-0.25490456	0.79916106	1.062879	0.28033302	0.7081289	0.92203913	-0.31085372	1.029768	0.99463914	0.35709294
428	1.708	1.0440298	0.060943508	-0.15181324	0.80090067	0.038135094	0.059149479	0.91989637	0.11519259	-0.16681431	0.6569305	0.055576396	0.093028896	0.94147519	0.13113581	-0.086812519	0.68032322	0.081900223	0.0098644722	0.85543943	0.093717447	-0.11742141	0.60667418	0.032860764	0.045923762	1.0151739	0.49350259	-0.17039127	0.76512367	0.44511655	0.13193041	1.0402846	0.46354938	-0.053402007	0.77981948	0.44870937	0.0038753031	0.86706625	0.84866716	-0.19244136	0.79219105	0.85912322	0.18711927	0.90200303	0.957204	-0.11520449	0.87693074	0.9516719	0.126809	0.69386971	0.9586394	-0.018951651	0.83786603	1.4325953	-0.13777305	0.80979675	1.4134007	0.18353351	0.74483228	1.446781	0.012656901	0.67195815	1.1568749	-0.2543372	0.80683376	1.0623434	0.28106889	0.70857421	0.92240185	-0.31177131	1.0387198	0.99635339	0.35594826
429	1.712	1.0614596	0.060857717	-0.15091619	0.80083493	0.038099862	0.059095865	0.93599323	0.11160958	-0.16669524	0.65698245	0.05565758	0.092974486	0.95620936	0.1277669	-0.086793724	0.68050849	0.081908806	0.009812392	0.87193153	0.08866599	-0.11757109	0.60667257	0.033002574	0.045882668	1.0218278	0.49252164	-0.16986187	0.76677119	0.44481534	0.13199891	1.0465517	0.46293115	-0.052697919	0.78197088	0.44844882	0.0040385727	0.87302373	0.84780834	-0.19221075	0.79577902	0.85862084	0.1870865	0.90761283	0.95637052	-0.11482574	0.88097834	0.95100746	0.12727477	0.69868044	0.95750534	-0.019693718	0.84252385	1.4316253	-0.13789839	0.81448636	1.4125392	0.1834849	0.74939339	1.4458707	0.012539602	0.67438083	1.1571448	-0.25374323	0.8144106	1.0617383	0.28181107	0.70910788	0.92273417	-0.31264912	1.0476085	0.99797954	0.35474673
430	1.716	1.0788811	0.060933146	-0.14997714	0.80064421	0.038035662	0.058963758	0.95212968	0.10815892	-0.16655185	0.65705182	0.055751199	0.092910335	0.97151211	0.12475628	-0.086528383	0.68064226	0.081932509	0.009716114	0.8885948	0.08370234	-0.11772855	0.6066784	0.033154695	0.045822434	1.0283239	0.49138606	-0.16937468	0.76848538	0.44450626	0.1320556	1.0527198	0.4621915	-0.052030498	0.78412773	0.44816104	0.0041492567	0.87897083	0.8468802	-0.19198095	0.79944327	0.85810747	0.18708302	0.91322441	0.95548358	-0.11444619	0.88500939	0.95031539	0.12772622	0.70350304	0.95632991	-0.020361893	0.84717569	1.4306165	-0.13802792	0.81921178	1.4116308	0.18342734	0.75396773	1.4449497	0.012410016	0.67683077	1.157353	-0.25313014	0.82181715	1.0611023	0.28273963	0.70971863	0.92304288	-0.31347998	1.0564153	0.99952932	0.35349026
